<?xml version="1.0"?>
<svg xmlns="http://www.w3.org/2000/svg" xmlns:xlink="http://www.w3.org/1999/xlink" xmlns:svgjs="http://svgjs.com/svgjs" version="1.1" width="512" height="512" x="0" y="0" viewBox="0 0 512 512" style="enable-background:new 0 0 512 512" xml:space="preserve" class=""><g>
<g xmlns="http://www.w3.org/2000/svg">
	<g>
		<path d="M200.949,235.941c-6.843-1.553-13.9-2.34-20.977-2.34c-52.074,0-94.441,42.367-94.441,94.441    c0,18.78,5.501,36.925,15.909,52.473c1.718,2.567,4.538,3.955,7.412,3.955c1.703,0,3.426-0.488,4.948-1.508    c4.089-2.737,5.185-8.27,2.448-12.359c-8.438-12.605-12.897-27.323-12.897-42.561c0-42.249,34.373-76.622,76.622-76.622    c5.752,0,11.483,0.639,17.033,1.898c4.797,1.089,9.572-1.919,10.661-6.717C208.755,241.802,205.747,237.03,200.949,235.941z" fill="#f5f4f4" data-original="#000000" class=""/>
	</g>
</g>
<g xmlns="http://www.w3.org/2000/svg">
	<g>
		<path d="M272.073,307.061c-1.091-4.8-5.864-7.808-10.661-6.718c-4.799,1.089-7.806,5.862-6.717,10.661    c1.26,5.552,1.9,11.285,1.9,17.039c0,42.249-34.373,76.622-76.622,76.622c-15.233,0-29.945-4.456-42.547-12.888    c-4.089-2.736-9.623-1.638-12.359,2.451c-2.736,4.089-1.639,9.623,2.451,12.359c15.544,10.399,33.683,15.897,52.456,15.897    c52.074,0,94.441-42.367,94.441-94.441C274.414,320.965,273.627,313.906,272.073,307.061z" fill="#f5f4f4" data-original="#000000" class=""/>
	</g>
</g>
<g xmlns="http://www.w3.org/2000/svg">
	<g>
		<path d="M253.427,268.679c-4.176-5.16-8.909-9.894-14.068-14.071c-3.824-3.097-9.435-2.505-12.53,1.319    c-3.097,3.823-2.507,9.432,1.317,12.529c4.191,3.393,8.036,7.239,11.428,11.432c1.76,2.176,4.335,3.306,6.932,3.306    c1.968,0,3.95-0.65,5.599-1.984C255.93,278.114,256.521,272.504,253.427,268.679z" fill="#f5f4f4" data-original="#000000" class=""/>
	</g>
</g>
<g xmlns="http://www.w3.org/2000/svg">
	<g>
		<path d="M179.972,271.614c-31.113,0-56.427,25.314-56.427,56.427c0,31.113,25.314,56.427,56.427,56.427    s56.427-25.314,56.427-56.427S211.085,271.614,179.972,271.614z M179.972,366.649c-21.288,0-38.608-17.32-38.608-38.608    c0-21.288,17.32-38.608,38.608-38.608s38.608,17.32,38.608,38.608S201.26,366.649,179.972,366.649z" fill="#f5f4f4" data-original="#000000" class=""/>
	</g>
</g>
<g xmlns="http://www.w3.org/2000/svg">
	<g>
		<path d="M341.531,290.621h-14.768c-3.56-14.002-9.114-27.364-16.574-39.877l10.482-10.484c3.478-3.477,5.393-8.102,5.393-13.02    s-1.915-9.543-5.393-13.02l-26.881-26.881c-7.179-7.177-18.86-7.177-26.04,0l-10.484,10.482    c-12.513-7.46-25.874-13.014-39.877-16.574v-14.768c0-10.153-8.26-18.413-18.413-18.413h-38.014    c-10.153,0-18.413,8.26-18.413,18.413v14.768c-14.002,3.56-27.364,9.114-39.877,16.574L92.191,187.34    c-7.179-7.177-18.86-7.177-26.04,0l-26.878,26.882c-3.478,3.477-5.393,8.102-5.393,13.02c0,4.918,1.915,9.543,5.393,13.02    l10.482,10.484c-7.46,12.513-13.014,25.876-16.574,39.877H18.413C8.26,290.621,0,298.881,0,309.034v38.014    c0,10.153,8.26,18.413,18.413,18.413h14.768c3.56,14.001,9.114,27.364,16.574,39.877l-10.482,10.484    c-7.179,7.179-7.179,18.86,0,26.04l26.881,26.881c7.179,7.177,18.861,7.177,26.039,0l10.482-10.482    c12.513,7.46,25.876,13.014,39.877,16.574v14.768c0,10.153,8.26,18.413,18.413,18.413h38.014c10.153,0,18.413-8.26,18.413-18.413    v-14.768c14.002-3.56,27.364-9.114,39.877-16.574l10.484,10.484c7.179,7.177,18.86,7.177,26.039,0l26.881-26.881    c7.179-7.179,7.177-18.861,0-26.04l-10.482-10.484c7.46-12.512,13.014-25.876,16.574-39.877h14.767    c10.153,0,18.413-8.26,18.413-18.413v-38.014C359.944,298.882,351.685,290.621,341.531,290.621z M341.531,347.642h-21.87    c-4.237,0-7.889,2.984-8.731,7.137c-3.395,16.725-9.954,32.509-19.494,46.915c-2.339,3.533-1.867,8.223,1.129,11.219    l15.507,15.507c0.232,0.232,0.232,0.609,0,0.841l-26.879,26.879c-0.232,0.232-0.608,0.232-0.841,0l-15.506-15.507    c-2.996-2.995-7.686-3.469-11.219-1.129c-14.406,9.539-30.191,16.099-46.916,19.494c-4.153,0.842-7.137,4.494-7.137,8.731v21.87    c0,0.328-0.266,0.594-0.594,0.594h-38.014c-0.328,0-0.594-0.266-0.594-0.594v-21.87c0-4.237-2.984-7.889-7.137-8.731    c-16.725-3.395-32.51-9.954-46.916-19.494c-1.503-0.996-3.215-1.481-4.917-1.481c-2.3,0-4.582,0.889-6.303,2.61L79.592,456.14    c-0.232,0.232-0.608,0.232-0.841,0L51.871,429.26c-0.232-0.232-0.232-0.609,0-0.841l15.508-15.505    c2.996-2.996,3.468-7.687,1.129-11.219c-9.54-14.406-16.099-30.191-19.494-46.915c-0.842-4.153-4.494-7.137-8.731-7.137h-21.87    c-0.328,0-0.594-0.266-0.594-0.594v-38.014c0-0.328,0.266-0.594,0.594-0.594h21.87c4.237,0,7.889-2.984,8.731-7.137    c3.395-16.725,9.954-32.51,19.494-46.916c2.339-3.533,1.867-8.223-1.129-11.219l-15.507-15.507c-0.232-0.232-0.232-0.608,0-0.84    l26.879-26.879c0.232-0.232,0.608-0.232,0.841,0L95.1,215.45c2.996,2.996,7.686,3.469,11.219,1.129    c14.406-9.539,30.19-16.099,46.915-19.494c4.153-0.842,7.137-4.494,7.137-8.731v-21.87c0-0.328,0.266-0.594,0.594-0.594h38.014    c0.328,0,0.594,0.266,0.594,0.594v21.87c0,4.237,2.984,7.889,7.137,8.731c16.725,3.395,32.509,9.954,46.915,19.494    c3.532,2.339,8.223,1.869,11.219-1.129l15.506-15.506c0.232-0.232,0.608-0.232,0.841,0l26.879,26.879    c0.232,0.232,0.232,0.608,0,0.84l-15.507,15.507c-2.996,2.996-3.468,7.687-1.129,11.219c9.539,14.406,16.099,30.191,19.494,46.916    c0.842,4.153,4.494,7.137,8.731,7.137h21.87c0.328,0,0.594,0.266,0.594,0.594v38.012h0.001    C342.125,347.376,341.859,347.642,341.531,347.642z" fill="#f5f4f4" data-original="#000000" class=""/>
	</g>
</g>
<g xmlns="http://www.w3.org/2000/svg">
	<g>
		<path d="M410.275,64.016c-3.813-0.981-7.757-1.478-11.724-1.478c-25.873,0-46.923,21.05-46.923,46.923    c0,3.963,0.497,7.903,1.475,11.711c1.035,4.021,4.653,6.693,8.622,6.693c0.734,0,1.481-0.091,2.225-0.283    c4.766-1.225,7.636-6.082,6.41-10.847c-0.607-2.359-0.915-4.806-0.915-7.274c0-16.048,13.057-29.104,29.104-29.104    c2.472,0.001,4.923,0.31,7.287,0.917c4.766,1.226,9.622-1.644,10.848-6.41C417.911,70.099,415.041,65.242,410.275,64.016z" fill="#f5f4f4" data-original="#000000" class=""/>
	</g>
</g>
<g xmlns="http://www.w3.org/2000/svg">
	<g>
		<path d="M443.992,97.721c-1.228-4.766-6.092-7.633-10.852-6.403c-4.765,1.228-7.631,6.087-6.403,10.852    c0.609,2.365,0.918,4.819,0.918,7.293c0,16.048-13.057,29.104-29.104,29.104c-2.471,0-4.922-0.309-7.286-0.917    c-4.761-1.228-9.623,1.641-10.849,6.407c-1.227,4.765,1.642,9.622,6.407,10.849c3.814,0.982,7.761,1.48,11.73,1.48    c25.873,0,46.923-21.05,46.923-46.923C445.476,105.489,444.977,101.538,443.992,97.721z" fill="#f5f4f4" data-original="#000000" class=""/>
	</g>
</g>
<g xmlns="http://www.w3.org/2000/svg">
	<g>
		<path d="M493.587,81.546h-14.891c-3.515-10.125-8.902-19.479-15.876-27.567l7.426-12.862c5.075-8.793,2.053-20.076-6.74-25.152    l-16.46-9.503c-4.258-2.459-9.221-3.115-13.972-1.84c-4.752,1.273-8.722,4.32-11.181,8.579l-7.434,12.877    c-10.631-2.065-21.182-2.065-31.813,0l-7.434-12.876c-2.459-4.26-6.43-7.307-11.181-8.58c-4.749-1.273-9.713-0.619-13.973,1.84    l-16.46,9.503c-8.792,5.076-11.815,16.359-6.739,25.152l7.425,12.861c-6.973,8.089-12.36,17.442-15.876,27.567h-14.891    c-10.153,0-18.413,8.26-18.413,18.413v19.007c0,10.153,8.26,18.413,18.413,18.413h14.891c3.515,10.125,8.902,19.479,15.876,27.567    l-7.425,12.861c-5.076,8.792-2.053,20.075,6.739,25.152l16.46,9.503c2.893,1.67,6.054,2.464,9.176,2.464    c6.369,0,12.571-3.302,15.977-9.203l7.434-12.876c10.631,2.065,21.182,2.065,31.813,0l7.434,12.876    c5.076,8.793,16.36,11.816,25.152,6.739l16.461-9.503c8.792-5.077,11.815-16.36,6.739-25.152l-7.425-12.861    c6.973-8.089,12.359-17.443,15.876-27.567h14.892c10.153,0,18.413-8.26,18.413-18.413V99.958    C512,89.806,503.74,81.546,493.587,81.546z M494.181,118.966c0,0.328-0.266,0.594-0.594,0.594h-21.499    c-4.064,0-7.612,2.75-8.627,6.685c-3.051,11.829-9.24,22.577-17.9,31.083c-2.899,2.846-3.504,7.293-1.473,10.811l10.726,18.577    c0.164,0.284,0.067,0.647-0.217,0.811l-16.46,9.503c-0.284,0.165-0.647,0.065-0.811-0.217l-10.742-18.607    c-2.03-3.516-6.183-5.217-10.095-4.132c-5.999,1.662-12.034,2.504-17.935,2.504c-5.902,0-11.936-0.842-17.935-2.504    c-3.912-1.086-8.064,0.614-10.095,4.132l-10.742,18.607c-0.164,0.283-0.526,0.383-0.811,0.217l-16.46-9.503    c-0.284-0.164-0.381-0.529-0.219-0.813l10.726-18.577c2.031-3.517,1.426-7.965-1.473-10.811    c-8.66-8.506-14.849-19.254-17.9-31.083c-1.015-3.936-4.563-6.685-8.627-6.685h-21.498c-0.328,0-0.594-0.266-0.594-0.594V99.958    c0-0.328,0.266-0.594,0.594-0.594h21.499c4.064,0,7.612-2.75,8.627-6.685c3.051-11.829,9.24-22.578,17.9-31.083    c2.899-2.846,3.504-7.293,1.473-10.811l-10.725-18.577c-0.164-0.284-0.067-0.649,0.217-0.813l16.461-9.503    c0.052-0.031,0.213-0.124,0.45-0.059s0.33,0.223,0.361,0.277l10.742,18.607c2.03,3.516,6.184,5.217,10.095,4.132    c5.999-1.662,12.034-2.504,17.935-2.504c5.902,0,11.936,0.842,17.935,2.504c3.914,1.086,8.065-0.614,10.095-4.132l10.742-18.608    c0.03-0.052,0.124-0.213,0.36-0.277c0.239-0.063,0.398,0.029,0.45,0.059l16.46,9.503c0.284,0.164,0.381,0.527,0.217,0.811    l-10.726,18.578c-2.031,3.517-1.426,7.965,1.473,10.811c8.66,8.506,14.849,19.254,17.9,31.083    c1.015,3.934,4.563,6.685,8.627,6.685h21.498c0.328,0,0.594,0.266,0.594,0.594V118.966z" fill="#f5f4f4" data-original="#000000" class=""/>
	</g>
</g>
<g xmlns="http://www.w3.org/2000/svg">
	<g>
		<path d="M503.091,290.621h-10.956c-1.221-6.326-3.708-12.206-7.2-17.356l7.755-7.755c3.479-3.479,3.479-9.121,0-12.599    c-3.479-3.479-9.121-3.479-12.599,0l-7.755,7.755c-5.15-3.491-11.03-5.978-17.356-7.2V242.51c0-4.92-3.989-8.909-8.909-8.909    c-4.92,0-8.91,3.989-8.91,8.909v10.956c-6.326,1.221-12.206,3.709-17.356,7.2l-7.755-7.755c-3.479-3.479-9.121-3.479-12.599,0    c-3.479,3.479-3.479,9.121,0,12.599l7.755,7.755c-3.491,5.15-5.979,11.03-7.2,17.356h-10.956c-4.92,0-8.909,3.989-8.909,8.91    c0,4.92,3.989,8.909,8.909,8.909h10.956c1.221,6.326,3.709,12.206,7.2,17.356l-7.755,7.755c-3.479,3.479-3.479,9.121,0,12.599    c1.739,1.74,4.02,2.61,6.3,2.61s4.56-0.87,6.3-2.61l7.755-7.755c5.15,3.491,11.03,5.978,17.356,7.2v10.956    c0,4.92,3.989,8.909,8.909,8.909c4.92,0,8.91-3.989,8.91-8.909v-10.956c6.326-1.221,12.205-3.709,17.356-7.2l7.755,7.755    c1.739,1.74,4.02,2.61,6.3,2.61c2.28,0,4.56-0.87,6.3-2.61c3.479-3.479,3.479-9.12,0-12.599l-7.755-7.755    c3.491-5.15,5.979-11.03,7.2-17.356h10.956c4.92,0,8.909-3.989,8.909-8.909S508.011,290.621,503.091,290.621z M446.07,328.635    c-16.048,0-29.104-13.057-29.104-29.104c0-16.048,13.057-29.104,29.104-29.104c16.048,0,29.104,13.057,29.104,29.104    C475.174,315.579,462.117,328.635,446.07,328.635z" fill="#f5f4f4" data-original="#000000" class=""/>
	</g>
</g>
<g xmlns="http://www.w3.org/2000/svg">
	<g>
		<path d="M446.07,290.574c-4.92,0-8.957,4.037-8.957,8.957s4.037,8.957,8.957,8.957c4.92,0,8.957-4.037,8.957-8.957    S450.99,290.574,446.07,290.574z" fill="#f5f4f4" data-original="#000000" class=""/>
	</g>
</g>
<g xmlns="http://www.w3.org/2000/svg">
</g>
<g xmlns="http://www.w3.org/2000/svg">
</g>
<g xmlns="http://www.w3.org/2000/svg">
</g>
<g xmlns="http://www.w3.org/2000/svg">
</g>
<g xmlns="http://www.w3.org/2000/svg">
</g>
<g xmlns="http://www.w3.org/2000/svg">
</g>
<g xmlns="http://www.w3.org/2000/svg">
</g>
<g xmlns="http://www.w3.org/2000/svg">
</g>
<g xmlns="http://www.w3.org/2000/svg">
</g>
<g xmlns="http://www.w3.org/2000/svg">
</g>
<g xmlns="http://www.w3.org/2000/svg">
</g>
<g xmlns="http://www.w3.org/2000/svg">
</g>
<g xmlns="http://www.w3.org/2000/svg">
</g>
<g xmlns="http://www.w3.org/2000/svg">
</g>
<g xmlns="http://www.w3.org/2000/svg">
</g>
</g></svg>
