<?xml version="1.0"?>
<svg xmlns="http://www.w3.org/2000/svg" xmlns:xlink="http://www.w3.org/1999/xlink" xmlns:svgjs="http://svgjs.com/svgjs" version="1.1" width="512" height="512" x="0" y="0" viewBox="0 0 64 64" style="enable-background:new 0 0 512 512" xml:space="preserve"><g><g xmlns="http://www.w3.org/2000/svg" id="Paper"><path d="M46,38a1,1,0,0,0-1,1V53H38a1,1,0,0,0-1,1v7H9V5a4.136,4.136,0,0,0-.5366-2H43a2.0023,2.0023,0,0,1,2,2V17a1,1,0,0,0,2,0V5a4.0042,4.0042,0,0,0-4-4H5A4.0042,4.0042,0,0,0,1,5V28a1,1,0,0,0,1,1H7V62a1,1,0,0,0,1,1H38a1.0041,1.0041,0,0,0,.707-.293l8-8A1.1185,1.1185,0,0,0,47,54V39A1,1,0,0,0,46,38ZM3,27V5A2,2,0,0,1,7,5V27ZM39,59.5859V55h4.5859Z" fill="#ffffff" data-original="#000000"/><path d="M40,7H14a1,1,0,0,0,0,2H40a1,1,0,0,0,0-2Z" fill="#ffffff" data-original="#000000"/><path d="M40,13H14a1,1,0,0,0,0,2H40a1,1,0,0,0,0-2Z" fill="#ffffff" data-original="#000000"/><path d="M41,20a1,1,0,0,0-1-1H14a1,1,0,0,0,0,2H40A1,1,0,0,0,41,20Z" fill="#ffffff" data-original="#000000"/><path d="M38,26a1,1,0,0,0-1-1H14a1,1,0,0,0,0,2H37A1,1,0,0,0,38,26Z" fill="#ffffff" data-original="#000000"/><path d="M32,32a1,1,0,0,0-1-1H14a1,1,0,0,0,0,2H31A1,1,0,0,0,32,32Z" fill="#ffffff" data-original="#000000"/><path d="M26,38a1,1,0,0,0-1-1H14a1,1,0,0,0,0,2H25A1,1,0,0,0,26,38Z" fill="#ffffff" data-original="#000000"/><path d="M21,43H14a1,1,0,0,0,0,2h7a1,1,0,0,0,0-2Z" fill="#ffffff" data-original="#000000"/><path d="M14,51h7a1,1,0,0,0,0-2H14a1,1,0,0,0,0,2Z" fill="#ffffff" data-original="#000000"/><path d="M14,57H34a1,1,0,0,0,0-2H14a1,1,0,0,0,0,2Z" fill="#ffffff" data-original="#000000"/><path d="M61.4644,12.5352a5.25,5.25,0,0,0-7.4141,0L25.293,41.293a1.1931,1.1931,0,0,0-.2632.4648l-2,8A1,1,0,0,0,24.2427,50.97l8-2a1.2408,1.2408,0,0,0,.4643-.2627L61.4644,19.9492A5.2393,5.2393,0,0,0,61.4644,12.5352ZM32,46.5857,27.4143,42,52.5,16.9139,57.0857,21.5Zm-5.4579-2.63,3.5021,3.5022L25.3745,48.626ZM60.05,18.5352l-1.55,1.55L53.9138,15.5l1.5506-1.5506a3.2428,3.2428,0,1,1,4.5859,4.586Z" fill="#ffffff" data-original="#000000"/></g></g></svg>
