<?xml version="1.0"?>
<svg xmlns="http://www.w3.org/2000/svg" xmlns:xlink="http://www.w3.org/1999/xlink" xmlns:svgjs="http://svgjs.com/svgjs" version="1.1" width="512" height="512" x="0" y="0" viewBox="0 0 452 452.896" style="enable-background:new 0 0 512 512" xml:space="preserve" class=""><g><path xmlns="http://www.w3.org/2000/svg" d="m129.914062 329.003906h70.890626c3.300781 13.671875 16.019531 23.890625 31.179687 23.890625 17.65625 0 32.019531-13.855469 32.019531-30.890625 0-17.03125-14.363281-30.890625-32.019531-30.890625-15.160156 0-27.882813 10.222657-31.179687 23.890625h-70.890626v-42.191406c14.300782-3.089844 25.015626-15.425781 25.015626-30.136719 0-17.03125-14.363282-30.890625-32.015626-30.890625-17.65625 0-32.019531 13.859375-32.019531 30.890625 0 14.710938 10.71875 27.046875 25.019531 30.136719v109.191406c.027344 25.945313 21.054688 46.972656 47 47h117.890626c3.300781 13.671875 16.019531 23.890625 31.179687 23.890625 17.65625 0 32.019531-13.855469 32.019531-30.890625 0-17.03125-14.363281-30.890625-32.019531-30.890625-15.160156 0-27.882813 10.222657-31.179687 23.890625h-117.890626c-18.21875-.019531-32.980468-14.78125-33-33zm102.070313-23.890625c9.933594 0 18.019531 7.578125 18.019531 16.890625s-8.085937 16.890625-18.019531 16.890625-18.019531-7.574219-18.019531-16.890625c0-9.3125 8.082031-16.890625 18.019531-16.890625zm80 100c9.933594 0 18.019531 7.578125 18.019531 16.890625s-8.085937 16.890625-18.019531 16.890625-18.019531-7.574219-18.019531-16.890625c0-9.3125 8.082031-16.890625 18.019531-16.890625zm-207.089844-162.4375c0-9.3125 8.082031-16.890625 18.019531-16.890625 9.933594 0 18.015626 7.578125 18.015626 16.890625s-8.082032 16.890625-18.015626 16.890625c-9.933593 0-18.019531-7.578125-18.019531-16.890625zm0 0" fill="#ffffff" data-original="#000000" class=""/><path xmlns="http://www.w3.org/2000/svg" d="m216.835938 61.738281c-.902344-17.667969-15.476563-31.535156-33.167969-31.558593h-48.988281l-17.710938-19.378907c-6.300781-6.875-15.191406-10.7929685-24.515625-10.800781h-58.800781c-18.328125.0234375-33.179688 14.875-33.203125 33.203125v141.738281c.019531 18.332032 14.875 33.1875 33.207031 33.210938h182.152344c18.332031-.023438 33.1875-14.878906 33.207031-33.210938v-80.007812c-.019531-17.933594-14.257813-32.617188-32.179687-33.195313zm-161.210938 113.203125c-.011719 10.605469-8.605469 19.199219-19.210938 19.210938h-2.757812c-10.601562-.011719-19.195312-8.605469-19.207031-19.210938v-141.738281c.011719-10.601563 8.605469-19.195313 19.207031-19.207031h58.800781c5.394531.003906 10.535157 2.273437 14.179688 6.25l17.847656 19.527344c2.566406 2.804687 6.195313 4.402343 10 4.40625h49.183594c9.957031.015624 18.257812 7.625 19.136719 17.542968h-113.972657c-18.332031.023438-33.1875 14.878906-33.207031 33.210938zm179.390625 0c-.007813 10.605469-8.605469 19.199219-19.207031 19.210938h-152.316406c3.996093-5.609375 6.140624-12.324219 6.132812-19.210938v-80.007812c.011719-10.605469 8.605469-19.199219 19.207031-19.210938h126.976563c10.601562.011719 19.195312 8.605469 19.207031 19.210938zm0 0" fill="#ffffff" data-original="#000000" class=""/></g></svg>
