<?xml version="1.0"?>
<svg xmlns="http://www.w3.org/2000/svg" xmlns:xlink="http://www.w3.org/1999/xlink" xmlns:svgjs="http://svgjs.com/svgjs" version="1.1" width="512" height="512" x="0" y="0" viewBox="0 0 512 512" style="enable-background:new 0 0 512 512" xml:space="preserve" class=""><g><g xmlns="http://www.w3.org/2000/svg" fill="rgb(0,0,0)"><path d="m190 265.47 66-66 66 66a10 10 0 0 0 14.14-14.15l-67.86-67.86a17.31 17.31 0 0 0 -24.48 0l-67.9 67.86a10 10 0 0 0 14.1 14.15z" fill="#ffffff" data-original="#000000" class=""/><path d="m268.24 248.67a17.31 17.31 0 0 0 -24.48 0l-67.86 67.87a10 10 0 0 0 14.1 14.14l66-66 66 66a10 10 0 0 0 14.14-14.14z" fill="#ffffff" data-original="#000000" class=""/></g></g></svg>
